<?xml version="1.0" encoding="UTF-8" standalone="no"?>
<svg 
    version="1.0" 
    xmlns="http://www.w3.org/2000/svg" 
    width="600px" 
    height="327px" 
    viewBox="0 0 600 327" 
    preserveAspectRatio="xMidYMid meet">
  <g transform="translate(0,327) scale(0.1,-0.1)" fill="#000000" stroke="none">
    <path d="M3390 2533 c-141 -21 -271 -92 -354 -192 -65 -77 -106 -183 -106 -270 0 -54 34 -112 80 -136 44 -23 111 -19 151 8 34 22 44 42 94 182 22 63 95 136 151 153 169 50 324 -56 324 -223 0 -75 -39 -132 -184 -269 -186 -175 -234 -257 -237 -408 -3 -115 45 -178 134 -178 87 0 137 54 152 165 12 83 41 123 205 285 167 164 199 208 224 305 30 113 11 248 -47 347 -60 103 -196 194 -332 223 -64 13 -194 18 -255 8z m226 -33 c56 -10 173 -53 203 -75 67 -48 154 -161 167 -217 34 -145 28 -232 -22 -329 -25 -47 -170 -208 -189 -210 -6 -1 -44 -38 -86 -83 -75 -82 -119 -155 -119 -199 0 -45 -31 -117 -60 -137 -29 -20 -107 -29 -95 -10 3 5 0 7 -8 4 -18 -6 -55 31 -64 64 -13 52 3 169 31 226 15 31 32 54 37 51 5 -4 6 1 3 10 -6 14 115 141 234 247 17 14 43 46 59 70 15 24 30 45 33 48 7 7 12 29 17 80 6 51 -15 125 -50 179 -29 44 -144 101 -205 101 -151 0 -242 -75 -301 -251 -31 -93 -58 -119 -120 -119 -78 0 -128 67 -117 158 6 55 46 154 66 167 5 3 8 10 5 15 -10 17 130 133 201 166 101 48 256 65 380 44z"/>
    <path d="M2700 2015 c-113 -113 -210 -205 -217 -205 -6 0 -13 4 -15 8 -1 5 -41 42 -88 83 -47 40 -111 97 -143 126 -51 47 -63 53 -101 53 -33 0 -55 -8 -97 -38 -29 -21 -59 -49 -66 -62 -9 -18 -13 -107 -13 -335 0 -363 -3 -350 102 -403 48 -25 72 -31 92 -26 28 7 115 76 253 201 l78 71 90 -85 c50 -47 208 -203 353 -347 203 -201 262 -254 255 -231 -4 17 -8 57 -7 90 1 70 35 147 82 187 l29 24 -95 80 c-53 43 -181 153 -286 243 -105 90 -202 172 -215 182 l-24 19 28 22 c15 12 83 70 151 129 l122 107 -29 28 c-58 55 -72 160 -34 252 8 17 11 32 7 32 -4 0 -99 -92 -212 -205z m155 38 c5 -27 9 -53 11 -60 1 -6 13 -28 27 -48 l25 -37 -52 -46 c-29 -26 -77 -67 -106 -92 -30 -25 -62 -53 -72 -62 -10 -10 -22 -18 -27 -18 -8 0 -5 -41 6 -70 4 -8 5 -19 4 -25 -2 -5 0 -7 4 -3 4 4 13 2 20 -5 6 -7 31 -28 55 -47 24 -19 61 -51 84 -71 23 -19 51 -42 63 -50 12 -8 53 -44 91 -80 38 -35 80 -72 93 -80 13 -9 40 -30 59 -47 19 -17 50 -43 68 -59 l32 -28 -23 -25 c-28 -30 -67 -109 -67 -136 0 -10 -4 -24 -8 -31 -10 -16 -52 -5 -52 13 0 8 -8 18 -17 21 -10 4 -48 36 -85 72 -36 37 -114 112 -172 169 -58 57 -106 105 -106 107 0 7 -83 85 -92 85 -4 0 -8 7 -8 16 0 8 -4 12 -10 9 -5 -3 -10 -3 -10 2 -1 16 -82 75 -107 78 -20 2 -38 -8 -69 -39 -23 -22 -62 -57 -85 -76 -24 -19 -64 -53 -89 -76 -52 -48 -80 -64 -109 -64 -30 0 -106 41 -122 65 -10 15 -13 88 -14 303 -1 156 2 285 7 288 4 3 2 14 -5 25 -10 16 -9 21 3 29 8 5 11 10 6 10 -16 0 16 30 61 55 76 42 88 37 218 -80 132 -119 175 -157 175 -151 0 2 16 0 35 -4 19 -4 33 -4 32 0 -3 11 306 318 314 314 4 -2 10 -25 14 -51z"/>
    <path d="M2095 1849 c-6 -8 -9 -284 -6 -381 1 -29 30 -49 52 -37 47 25 197 172 200 196 5 36 -14 63 -102 147 -88 83 -127 104 -144 75z m130 -101 l105 -103 -102 -102 c-57 -57 -105 -103 -108 -103 -3 0 -5 92 -5 205 0 113 1 205 2 205 2 0 50 -46 108 -102z"/>
    <path d="M3412 1068 c-27 -6 -55 -22 -76 -43 -145 -144 33 -374 210 -270 73 43 105 145 68 218 -42 83 -110 115 -202 95z m129 -55 c73 -48 77 -148 9 -215 -33 -34 -43 -38 -86 -38 -163 0 -209 204 -61 270 49 22 87 17 138 -17z"/>
  </g>
</svg>
